<svg xmlns="http://www.w3.org/2000/svg" viewBox="0 0 895.14 264" role="img" aria-label="CyberTrain"><title>CyberTrain</title><path fill="#0A0A0A" fill-rule="evenodd" d="M531.57 53.68L531.57 36L495.57 0L399.57 0L363.57 36L363.57 53.68ZM519.07 41.18L376.07 41.18L404.75 12.5L490.39 12.5ZM531.57 88L363.57 88L391.57 116L503.57 116ZM516.06 136L502.06 122L493.57 122L507.57 136L387.57 136L401.57 122L393.09 122L379.09 136L369.09 136L369.09 142L373.09 142L355.09 160L363.57 160L381.57 142L513.57 142L531.57 160L540.06 160L522.06 142L526.06 142L526.06 136Z"/><path fill="#A8864A" d="M531.57 67.34L363.57 67.34L363.57 74.34L531.57 74.34Z"/><path fill="#0A0A0A" fill-rule="evenodd" d="M14.93 264L80 264L80 254L19.07 254L10 244.93L10 223.07L19.07 214L80 214L80 204L14.93 204L0 218.93L0 249.07ZM141 264L141 239L161.07 239L176 224.07L176 204L166 204L166 219.93L156.93 229L115.07 229L106 219.93L106 204L96 204L96 224.07L110.93 239L131 239L131 264ZM266.07 234L271 229.07L271 218.93L256.07 204L194 204L194 264L259.07 264L274 249.07L274 241.93ZM261 223.07L261 224.93L256.93 229L204 229L204 214L251.93 214ZM204 254L204 239L256.93 239L263.43 245.5L254.93 254ZM367 204L295 204L295 264L367 264L367 254L305 254L305 239L361 239L361 229L305 229L305 214L367 214ZM458 224.07L458 218.93L443.07 204L388 204L388 264L398 264L398 239L428.93 239L453.93 264L468.07 264L443.07 239ZM398 214L438.93 214L446.43 221.5L438.93 229L398 229ZM518.07 214L518.07 264L528.07 264L528.07 214L563.07 214L563.07 204L483.07 204L483.07 214ZM634.14 239L649.07 224.07L649.07 218.93L634.14 204L579.07 204L579.07 264L589.07 264L589.07 239L620 239L645 264L659.14 264ZM589.07 229L589.07 214L630 214L637.5 221.5L630 229ZM738.21 204L704.07 204L679.14 228.93L679.14 264L689.14 264L689.14 239L753.14 239L753.14 264L763.14 264L763.14 228.93ZM693.21 229L708.21 214L734.07 214L749.07 229ZM786.14 264L796.14 264L796.14 204L786.14 204ZM895.14 264L895.14 204L885.14 204L885.14 254.27L833.48 204L819.14 204L819.14 264L829.14 264L829.14 213.73L880.8 264Z"/></svg>
